<svg width="36" height="24" viewBox="0 0 36 24" fill="none" xmlns="http://www.w3.org/2000/svg">
<path d="M0 4C0 1.79086 1.79086 0 4 0H24V24H4C1.79086 24 0 22.2091 0 20V4Z" fill="#7F3BF5" fill-opacity="0.05"/>
<path d="M19 10.8348C19 10.7464 18.9236 10.6741 18.8303 10.6741H17.5576C17.4642 10.6741 17.3879 10.7464 17.3879 10.8348C17.3879 13.6533 14.9761 15.9375 12 15.9375C9.02394 15.9375 6.61212 13.6533 6.61212 10.8348C6.61212 10.7464 6.53576 10.6741 6.44242 10.6741H5.1697C5.07636 10.6741 5 10.7464 5 10.8348C5 14.2239 7.68545 17.0203 11.1515 17.4161V19.4732H8.06939C7.77879 19.4732 7.54545 19.7605 7.54545 20.1161V20.8393C7.54545 20.9277 7.60485 21 7.67697 21H16.323C16.3952 21 16.4545 20.9277 16.4545 20.8393V20.1161C16.4545 19.7605 16.2212 19.4732 15.9306 19.4732H12.7636V17.4261C16.27 17.0645 19 14.252 19 10.8348ZM12 14.25C13.9918 14.25 15.6061 12.7393 15.6061 10.875V6.375C15.6061 4.51071 13.9918 3 12 3C10.0082 3 8.39394 4.51071 8.39394 6.375V10.875C8.39394 12.7393 10.0082 14.25 12 14.25ZM10.0061 6.375C10.0061 5.35848 10.8948 4.52679 12 4.52679C13.1052 4.52679 13.9939 5.35848 13.9939 6.375V10.875C13.9939 11.8915 13.1052 12.7232 12 12.7232C10.8948 12.7232 10.0061 11.8915 10.0061 10.875V6.375Z" fill="#7F3BF5" fill-opacity="0.8"/>
<path d="M24 0H32C34.2091 0 36 1.79086 36 4V20C36 22.2091 34.2091 24 32 24H24V0Z" fill="#7F3BF5" fill-opacity="0.05"/>
<path d="M27.477 9.86133H32.5427C32.7424 9.86133 32.8615 10.0839 32.7507 10.25L30.2179 14.0493C30.1189 14.1977 29.9008 14.1977 29.8018 14.0493L27.269 10.25C27.1582 10.0839 27.2773 9.86133 27.477 9.86133Z" fill="#7F3BF5" fill-opacity="0.8"/>
</svg>
